<mxfile host="app.diagrams.net" modified="2023-07-17T05:42:25.141Z" agent="Mozilla/5.0 (Windows NT 10.0; Win64; x64) AppleWebKit/537.36 (KHTML, like Gecko) Chrome/114.0.0.0 Safari/537.36" etag="Uqx_ZBxybZTSf-wV08tJ" version="21.6.2" type="github">
  <diagram name="Page-1" id="ff44883e-f642-bcb2-894b-16b3d25a3f0b">
    <mxGraphModel dx="1434" dy="756" grid="1" gridSize="10" guides="1" tooltips="1" connect="1" arrows="1" fold="1" page="1" pageScale="1.5" pageWidth="1169" pageHeight="826" background="none" math="0" shadow="0">
      <root>
        <mxCell id="0" style=";html=1;" />
        <mxCell id="1" style=";html=1;" parent="0" />
        <mxCell id="o1XDPeXe-jq_6M-sjUzw-1" value="&lt;font style=&quot;font-size: 25px;&quot;&gt;监控站&lt;/font&gt;" style="rounded=0;whiteSpace=wrap;html=1;fillColor=#FFFFFF;" vertex="1" parent="1">
          <mxGeometry x="750" y="290" width="120" height="60" as="geometry" />
        </mxCell>
        <mxCell id="o1XDPeXe-jq_6M-sjUzw-2" value="" style="shape=flexArrow;endArrow=classic;html=1;rounded=0;" edge="1" parent="1">
          <mxGeometry width="50" height="50" relative="1" as="geometry">
            <mxPoint x="810" y="420" as="sourcePoint" />
            <mxPoint x="809.5" y="350" as="targetPoint" />
          </mxGeometry>
        </mxCell>
        <mxCell id="o1XDPeXe-jq_6M-sjUzw-3" value="" style="endArrow=none;html=1;rounded=0;strokeWidth=4;" edge="1" parent="1">
          <mxGeometry width="50" height="50" relative="1" as="geometry">
            <mxPoint x="715" y="440" as="sourcePoint" />
            <mxPoint x="905" y="440" as="targetPoint" />
            <Array as="points" />
          </mxGeometry>
        </mxCell>
        <mxCell id="o1XDPeXe-jq_6M-sjUzw-4" value="&lt;font style=&quot;font-size: 19px;&quot;&gt;无线电通信&lt;/font&gt;" style="ellipse;whiteSpace=wrap;html=1;" vertex="1" parent="1">
          <mxGeometry x="910" y="400" width="120" height="80" as="geometry" />
        </mxCell>
        <mxCell id="o1XDPeXe-jq_6M-sjUzw-5" value="&lt;font style=&quot;font-size: 19px;&quot;&gt;卫星通信&lt;/font&gt;" style="ellipse;whiteSpace=wrap;html=1;" vertex="1" parent="1">
          <mxGeometry x="590" y="400" width="120" height="80" as="geometry" />
        </mxCell>
        <mxCell id="o1XDPeXe-jq_6M-sjUzw-6" value="" style="endArrow=classic;html=1;rounded=0;strokeWidth=4;" edge="1" parent="1">
          <mxGeometry width="50" height="50" relative="1" as="geometry">
            <mxPoint x="809.5" y="440" as="sourcePoint" />
            <mxPoint x="810" y="490" as="targetPoint" />
          </mxGeometry>
        </mxCell>
        <mxCell id="o1XDPeXe-jq_6M-sjUzw-7" value="&lt;font style=&quot;font-size: 20px;&quot;&gt;远程通信模块&lt;/font&gt;" style="rounded=0;whiteSpace=wrap;html=1;" vertex="1" parent="1">
          <mxGeometry x="730" y="490" width="160" height="40" as="geometry" />
        </mxCell>
        <mxCell id="o1XDPeXe-jq_6M-sjUzw-8" value="" style="shape=flexArrow;endArrow=classic;html=1;rounded=0;" edge="1" parent="1">
          <mxGeometry width="50" height="50" relative="1" as="geometry">
            <mxPoint x="809.5" y="540" as="sourcePoint" />
            <mxPoint x="810" y="610" as="targetPoint" />
          </mxGeometry>
        </mxCell>
        <mxCell id="o1XDPeXe-jq_6M-sjUzw-9" value="Text" style="edgeLabel;html=1;align=center;verticalAlign=middle;resizable=0;points=[];" vertex="1" connectable="0" parent="o1XDPeXe-jq_6M-sjUzw-8">
          <mxGeometry x="0.025" y="2" relative="1" as="geometry">
            <mxPoint as="offset" />
          </mxGeometry>
        </mxCell>
        <mxCell id="o1XDPeXe-jq_6M-sjUzw-10" value="&lt;font style=&quot;font-size: 20px;&quot;&gt;指控指令&lt;/font&gt;" style="edgeLabel;html=1;align=center;verticalAlign=middle;resizable=0;points=[];" vertex="1" connectable="0" parent="o1XDPeXe-jq_6M-sjUzw-8">
          <mxGeometry x="0.025" y="1" relative="1" as="geometry">
            <mxPoint as="offset" />
          </mxGeometry>
        </mxCell>
        <mxCell id="o1XDPeXe-jq_6M-sjUzw-14" value="&lt;font style=&quot;font-size: 30px;&quot;&gt;智能控制&lt;/font&gt;" style="rounded=0;whiteSpace=wrap;html=1;" vertex="1" parent="1">
          <mxGeometry x="775" y="620" width="70" height="170" as="geometry" />
        </mxCell>
        <mxCell id="o1XDPeXe-jq_6M-sjUzw-16" value="" style="endArrow=classic;startArrow=classic;html=1;rounded=0;strokeWidth=3;" edge="1" parent="1">
          <mxGeometry width="50" height="50" relative="1" as="geometry">
            <mxPoint x="845" y="640" as="sourcePoint" />
            <mxPoint x="920" y="640" as="targetPoint" />
          </mxGeometry>
        </mxCell>
        <mxCell id="o1XDPeXe-jq_6M-sjUzw-17" value="" style="endArrow=classic;startArrow=classic;html=1;rounded=0;strokeWidth=3;" edge="1" parent="1">
          <mxGeometry width="50" height="50" relative="1" as="geometry">
            <mxPoint x="845" y="704.5" as="sourcePoint" />
            <mxPoint x="920" y="704.5" as="targetPoint" />
          </mxGeometry>
        </mxCell>
        <mxCell id="o1XDPeXe-jq_6M-sjUzw-18" value="" style="endArrow=classic;startArrow=classic;html=1;rounded=0;strokeWidth=3;" edge="1" parent="1">
          <mxGeometry width="50" height="50" relative="1" as="geometry">
            <mxPoint x="845" y="760" as="sourcePoint" />
            <mxPoint x="920" y="760" as="targetPoint" />
          </mxGeometry>
        </mxCell>
        <mxCell id="o1XDPeXe-jq_6M-sjUzw-19" value="" style="endArrow=classic;startArrow=classic;html=1;rounded=0;strokeWidth=3;" edge="1" parent="1">
          <mxGeometry width="50" height="50" relative="1" as="geometry">
            <mxPoint x="700" y="640" as="sourcePoint" />
            <mxPoint x="775" y="640" as="targetPoint" />
          </mxGeometry>
        </mxCell>
        <mxCell id="o1XDPeXe-jq_6M-sjUzw-20" value="" style="endArrow=classic;startArrow=classic;html=1;rounded=0;strokeWidth=3;" edge="1" parent="1">
          <mxGeometry width="50" height="50" relative="1" as="geometry">
            <mxPoint x="700" y="704.5" as="sourcePoint" />
            <mxPoint x="775" y="704.5" as="targetPoint" />
          </mxGeometry>
        </mxCell>
        <mxCell id="o1XDPeXe-jq_6M-sjUzw-21" value="" style="endArrow=classic;startArrow=classic;html=1;rounded=0;strokeWidth=3;" edge="1" parent="1">
          <mxGeometry width="50" height="50" relative="1" as="geometry">
            <mxPoint x="700" y="760" as="sourcePoint" />
            <mxPoint x="775" y="760" as="targetPoint" />
          </mxGeometry>
        </mxCell>
        <mxCell id="o1XDPeXe-jq_6M-sjUzw-22" value="&lt;font style=&quot;font-size: 20px;&quot;&gt;智能打击及防御模块&lt;/font&gt;" style="rounded=0;whiteSpace=wrap;html=1;" vertex="1" parent="1">
          <mxGeometry x="920" y="620" width="200" height="50" as="geometry" />
        </mxCell>
        <mxCell id="o1XDPeXe-jq_6M-sjUzw-23" value="&lt;font style=&quot;font-size: 20px;&quot;&gt;情报侦察模块&lt;/font&gt;" style="rounded=0;whiteSpace=wrap;html=1;" vertex="1" parent="1">
          <mxGeometry x="920" y="680" width="200" height="50" as="geometry" />
        </mxCell>
        <mxCell id="o1XDPeXe-jq_6M-sjUzw-24" value="&lt;font style=&quot;font-size: 20px;&quot;&gt;协同控制模块&lt;/font&gt;" style="rounded=0;whiteSpace=wrap;html=1;" vertex="1" parent="1">
          <mxGeometry x="920" y="740" width="200" height="50" as="geometry" />
        </mxCell>
        <mxCell id="o1XDPeXe-jq_6M-sjUzw-25" value="&lt;font style=&quot;font-size: 20px;&quot;&gt;环境感知模块&lt;/font&gt;" style="rounded=0;whiteSpace=wrap;html=1;" vertex="1" parent="1">
          <mxGeometry x="500" y="620" width="200" height="50" as="geometry" />
        </mxCell>
        <mxCell id="o1XDPeXe-jq_6M-sjUzw-26" value="&lt;font style=&quot;font-size: 20px;&quot;&gt;航迹规划/跟踪&lt;/font&gt;" style="rounded=0;whiteSpace=wrap;html=1;" vertex="1" parent="1">
          <mxGeometry x="500" y="680" width="200" height="50" as="geometry" />
        </mxCell>
        <mxCell id="o1XDPeXe-jq_6M-sjUzw-27" value="&lt;font style=&quot;font-size: 20px;&quot;&gt;故障诊断模块&lt;/font&gt;" style="rounded=0;whiteSpace=wrap;html=1;" vertex="1" parent="1">
          <mxGeometry x="500" y="740" width="200" height="50" as="geometry" />
        </mxCell>
        <mxCell id="o1XDPeXe-jq_6M-sjUzw-28" value="" style="shape=flexArrow;endArrow=classic;html=1;rounded=0;" edge="1" parent="1">
          <mxGeometry width="50" height="50" relative="1" as="geometry">
            <mxPoint x="809.5" y="800" as="sourcePoint" />
            <mxPoint x="810" y="870" as="targetPoint" />
          </mxGeometry>
        </mxCell>
        <mxCell id="o1XDPeXe-jq_6M-sjUzw-29" value="Text" style="edgeLabel;html=1;align=center;verticalAlign=middle;resizable=0;points=[];" vertex="1" connectable="0" parent="o1XDPeXe-jq_6M-sjUzw-28">
          <mxGeometry x="0.025" y="2" relative="1" as="geometry">
            <mxPoint as="offset" />
          </mxGeometry>
        </mxCell>
        <mxCell id="o1XDPeXe-jq_6M-sjUzw-30" value="&lt;font style=&quot;font-size: 20px;&quot;&gt;航行指令&lt;/font&gt;" style="edgeLabel;html=1;align=center;verticalAlign=middle;resizable=0;points=[];" vertex="1" connectable="0" parent="o1XDPeXe-jq_6M-sjUzw-28">
          <mxGeometry x="0.025" y="1" relative="1" as="geometry">
            <mxPoint as="offset" />
          </mxGeometry>
        </mxCell>
        <mxCell id="o1XDPeXe-jq_6M-sjUzw-31" value="&lt;font style=&quot;font-size: 20px;&quot;&gt;自动驾驶模块&lt;/font&gt;" style="rounded=0;whiteSpace=wrap;html=1;" vertex="1" parent="1">
          <mxGeometry x="730" y="870" width="160" height="40" as="geometry" />
        </mxCell>
        <mxCell id="o1XDPeXe-jq_6M-sjUzw-32" value="&lt;font style=&quot;font-size: 24px;&quot;&gt;动力/操纵模块&lt;/font&gt;" style="html=1;shadow=0;dashed=0;align=center;verticalAlign=middle;shape=mxgraph.arrows2.arrow;dy=0.6;dx=40;direction=south;notch=0;" vertex="1" parent="1">
          <mxGeometry x="727.5" y="920" width="165" height="100" as="geometry" />
        </mxCell>
        <mxCell id="o1XDPeXe-jq_6M-sjUzw-33" value="&lt;font style=&quot;font-size: 21px;&quot;&gt;无人艇平台&lt;br&gt;（载体模块）&lt;/font&gt;" style="rounded=0;whiteSpace=wrap;html=1;" vertex="1" parent="1">
          <mxGeometry x="720" y="1030" width="180" height="70" as="geometry" />
        </mxCell>
        <mxCell id="o1XDPeXe-jq_6M-sjUzw-34" value="&lt;font style=&quot;font-size: 20px;&quot;&gt;综合导航模块&lt;/font&gt;" style="rounded=0;whiteSpace=wrap;html=1;" vertex="1" parent="1">
          <mxGeometry x="1000" y="870" width="160" height="40" as="geometry" />
        </mxCell>
        <mxCell id="o1XDPeXe-jq_6M-sjUzw-35" value="" style="endArrow=classic;startArrow=classic;html=1;rounded=0;entryX=0;entryY=0.5;entryDx=0;entryDy=0;strokeWidth=3;" edge="1" parent="1" target="o1XDPeXe-jq_6M-sjUzw-34">
          <mxGeometry width="50" height="50" relative="1" as="geometry">
            <mxPoint x="892.5" y="889.5" as="sourcePoint" />
            <mxPoint x="982.5" y="889.5" as="targetPoint" />
          </mxGeometry>
        </mxCell>
        <mxCell id="o1XDPeXe-jq_6M-sjUzw-36" value="" style="endArrow=classic;startArrow=classic;html=1;rounded=0;entryX=0.05;entryY=-0.1;entryDx=0;entryDy=0;entryPerimeter=0;strokeWidth=3;" edge="1" parent="1" target="o1XDPeXe-jq_6M-sjUzw-34">
          <mxGeometry width="50" height="50" relative="1" as="geometry">
            <mxPoint x="850" y="780" as="sourcePoint" />
            <mxPoint x="920" y="850" as="targetPoint" />
          </mxGeometry>
        </mxCell>
        <mxCell id="o1XDPeXe-jq_6M-sjUzw-37" value="" style="endArrow=classic;html=1;rounded=0;strokeWidth=3;entryX=1;entryY=0.5;entryDx=0;entryDy=0;entryPerimeter=0;" edge="1" parent="1" target="o1XDPeXe-jq_6M-sjUzw-7">
          <mxGeometry width="50" height="50" relative="1" as="geometry">
            <mxPoint x="1140" y="870" as="sourcePoint" />
            <mxPoint x="900" y="510" as="targetPoint" />
            <Array as="points">
              <mxPoint x="1140" y="510" />
            </Array>
          </mxGeometry>
        </mxCell>
      </root>
    </mxGraphModel>
  </diagram>
</mxfile>
